Coordinates
version=1
nRows=21
nColumns=38
inDegrees=no

Units are S.I. units (second, meters, Newtons, ...)
If the header above contains a line with 'inDegrees', this indicates whether rotational values are in degrees (yes) or radians (no).

endheader
time	pelvis_tilt	pelvis_list	pelvis_rotation	pelvis_tx	pelvis_ty	pelvis_tz	hip_flexion_r	hip_adduction_r	hip_rotation_r	knee_angle_r	ankle_angle_r	subtalar_angle_r	mtp_angle_r	hip_flexion_l	hip_adduction_l	hip_rotation_l	knee_angle_l	ankle_angle_l	subtalar_angle_l	mtp_angle_l	lumbar_extension	lumbar_bending	lumbar_rotation	arm_flex_r	arm_add_r	arm_rot_r	elbow_flex_r	pro_sup_r	wrist_flex_r	wrist_dev_r	arm_flex_l	arm_add_l	arm_rot_l	elbow_flex_l	pro_sup_l	wrist_flex_l	wrist_dev_l
0.13	0.132208	-0.000106709	-0.036301	0.736677	0.988204	-0.284246	0.389489	0.0215888	-0.0784092	-0.315708	0.176159	-0.0290223	-0.00231454	-0.418076	0.0273021	-0.0826094	-1.21664	-0.523586	0.0040637	-0.0435967	-0.411165	0.00658226	-0.133854	-0.711552	-0.169909	-0.311109	1.68754	1.28635	0.0144776	-0.0516297	0.0500146	-0.347966	0.21788	1.89335	1.83732	0.0661847	-0.0523579
0.14	0.143639	-0.0206425	-0.0335003	0.734245	0.984485	-0.282404	0.390846	0.0444078	-0.0958569	-0.418356	0.143002	-0.0290223	-0.00231454	-0.374213	-0.0312305	-0.115856	-1.36241	-0.495893	0.0040637	-0.0435967	-0.431357	0.0262715	-0.109847	-0.675779	-0.187407	-0.307721	1.69158	1.28563	0.0144776	-0.0516297	0.0324861	-0.340135	0.224434	1.84435	1.82432	0.0661847	-0.0523579
0.15	0.152143	-0.0401869	-0.0317392	0.731781	0.979976	-0.280967	0.38795	0.0671366	-0.107564	-0.514076	0.131535	-0.0290223	-0.00231454	-0.322162	-0.079228	-0.137843	-1.49496	-0.466145	0.0040637	-0.0435967	-0.447994	0.0445446	-0.0847589	-0.636909	-0.207889	-0.302349	1.69353	1.28447	0.0144776	-0.0516297	0.013823	-0.332127	0.22622	1.79187	1.81929	0.0661847	-0.0523579
0.16	0.157827	-0.0586256	-0.0309784	0.729335	0.975044	-0.279914	0.380509	0.0896056	-0.113604	-0.602414	0.141307	-0.0290223	-0.00231454	-0.262059	-0.116595	-0.148716	-1.61416	-0.43461	0.0040637	-0.0435967	-0.46116	0.0613164	-0.0586828	-0.595025	-0.231316	-0.295023	1.69348	1.28284	0.0144776	-0.0516297	-0.00600833	-0.323984	0.223261	1.73613	1.82211	0.0661847	-0.0523579
0.17	0.160977	-0.0756117	-0.0310906	0.726938	0.970172	-0.279225	0.367699	0.111282	-0.11422	-0.682088	0.170731	-0.0290223	-0.00231454	-0.194356	-0.14313	-0.149011	-1.71957	-0.401926	0.0040637	-0.0435967	-0.471088	0.076317	-0.0319	-0.550431	-0.257537	-0.285893	1.6917	1.28074	0.0144776	-0.0516297	-0.0271437	-0.315849	0.215653	1.67787	1.83226	0.0661847	-0.0523579
0.18	0.162059	-0.0904771	-0.0318369	0.724589	0.965746	-0.278871	0.348174	0.13115	-0.109891	-0.750932	0.216579	-0.0290223	-0.00231454	-0.119974	-0.158606	-0.139878	-1.8104	-0.368957	0.0040637	-0.0435967	-0.478143	0.0890202	-0.0049223	-0.503796	-0.286206	-0.275367	1.68878	1.27816	0.0144776	-0.0516297	-0.0498999	-0.308003	0.203607	1.61858	1.84855	0.0661847	-0.0523579
0.19	0.161647	-0.102231	-0.0328949	0.722284	0.961951	-0.278837	0.320327	0.147734	-0.101361	-0.806235	0.273951	-0.0290223	-0.00231454	-0.0403378	-0.162919	-0.12323	-1.88559	-0.336522	0.0040637	-0.0435967	-0.482726	0.0986292	0.0215549	-0.456239	-0.316706	-0.264231	1.68568	1.27517	0.0144776	-0.0516297	-0.0748258	-0.300882	0.187475	1.56051	1.86897	0.0661847	-0.0523579
0.2	0.160238	-0.109683	-0.033928	0.720076	0.958894	-0.279135	0.282745	0.159265	-0.0896372	-0.845299	0.336724	-0.0290223	-0.00231454	0.0427222	-0.15629	-0.101725	-1.94392	-0.305201	0.0040637	-0.0435967	-0.48514	0.104137	0.0467836	-0.409335	-0.348128	-0.2537	1.68366	1.272	0.0144776	-0.0516297	-0.10269	-0.295047	0.167746	1.50653	1.89069	0.0661847	-0.0523579
0.21	0.158175	-0.111666	-0.0346862	0.718106	0.956686	-0.279752	0.234683	0.163983	-0.0759872	-0.866016	0.398185	-0.0290223	-0.00231454	0.127202	-0.139463	-0.0785882	-1.98428	-0.275306	0.0040637	-0.0435967	-0.485415	0.104485	0.0701359	-0.364984	-0.379314	-0.245322	1.68415	1.269	0.0144776	-0.0516297	-0.134391	-0.291101	0.145007	1.45976	1.91038	0.0661847	-0.0523579
0.22	0.155499	-0.107269	-0.0350908	0.716563	0.955415	-0.280608	0.176377	0.160496	-0.0618632	-0.867277	0.451616	-0.0290223	-0.00231454	0.211155	-0.113881	-0.057305	-2.0058	-0.246959	0.0040637	-0.0435967	-0.483252	0.098778	0.0912483	-0.32517	-0.409	-0.240703	1.68849	1.2666	0.0144776	-0.0516297	-0.170817	-0.289571	0.119842	1.4231	1.9248	0.0661847	-0.0523579
0.23	0.151925	-0.0960729	-0.0352541	0.715645	0.955093	-0.281607	0.109091	0.148098	-0.0488087	-0.849154	0.490734	-0.0290223	-0.00231454	0.292842	-0.0817249	-0.0411916	-2.00795	-0.220189	0.0040637	-0.0435967	-0.478096	0.0865209	0.110092	-0.291665	-0.436007	-0.241151	1.69767	1.2652	0.0144776	-0.0516297	-0.212656	-0.29076	0.0927545	1.3987	1.93143	0.0661847	-0.0523579
0.24	0.146986	-0.0783269	-0.0354475	0.715517	0.955664	-0.282691	0.0349253	0.126957	-0.0383269	-0.812892	0.510064	-0.0290223	-0.00231454	0.370752	-0.0457488	-0.0329222	-1.99057	-0.194958	0.0040637	-0.0435967	-0.469328	0.0677948	0.126953	-0.265738	-0.45944	-0.247316	1.7122	1.26501	0.0144776	-0.0516297	-0.260219	-0.29461	0.0640999	1.38764	1.92892	0.0661847	-0.0523579
0.25	0.140243	-0.0549721	-0.0360404	0.716289	0.957035	-0.28382	-0.0435174	0.0981332	-0.0317255	-0.76083	0.505361	-0.0290223	-0.00231454	0.443494	-0.0089382	-0.0341238	-1.95375	-0.171128	0.0040637	-0.0435967	-0.456519	0.0433296	0.14233	-0.24794	-0.478835	-0.258981	1.73199	1.26596	0.0144776	-0.0516297	-0.313309	-0.300629	0.0340691	1.38974	1.91736	0.0661847	-0.0523579
0.26	0.131486	-0.0275478	-0.0374349	0.717977	0.959101	-0.284955	-0.123464	0.063419	-0.0299591	-0.696326	0.474064	-0.0290223	-0.00231454	0.509665	0.0259141	-0.0451163	-1.89774	-0.148405	0.0040637	-0.0435967	-0.439665	0.0144479	0.156783	-0.237993	-0.494211	-0.275026	1.7564	1.26779	0.0144776	-0.0516297	-0.37119	-0.307899	0.00270476	1.40367	1.89821	0.0661847	-0.0523579
0.27	0.120851	0.0020087	-0.0400001	0.720489	0.961748	-0.286074	-0.202208	0.0250778	-0.0334796	-0.623704	0.41575	-0.0290223	-0.00231454	0.567782	0.0566125	-0.0648287	-1.82286	-0.126359	0.0040637	-0.0435967	-0.419302	-0.0171001	0.170768	-0.234816	-0.506006	-0.293606	1.78437	1.27015	0.0144776	-0.0516297	-0.432637	-0.315178	-0.0300442	1.42719	1.87401	0.0661847	-0.0523579
0.28	0.108837	0.0316215	-0.0440043	0.723635	0.96485	-0.287154	-0.277232	-0.014424	-0.042111	-0.548144	0.332424	-0.0290223	-0.00231454	0.616322	0.0817757	-0.0909227	-1.72951	-0.104484	0.0040637	-0.0435967	-0.396477	-0.04933	0.184507	-0.236689	-0.514933	-0.312478	1.81453	1.27279	0.0144776	-0.0516297	-0.496056	-0.321074	-0.0642507	1.45761	1.84789	0.0661847	-0.0523579
0.29	0.0961893	0.0592502	-0.0495472	0.72715	0.968263	-0.28814	-0.34629	-0.052652	-0.0549684	-0.47545	0.228536	-0.0290223	-0.00231454	0.653874	0.100859	-0.120113	-1.61828	-0.0822949	0.0040637	-0.0435967	-0.372613	-0.0802509	0.19791	-0.241532	-0.521787	-0.329391	1.84541	1.27573	0.0144776	-0.0516297	-0.559621	-0.324256	-0.0999208	1.49206	1.82292	0.0661847	-0.0523579
0.3	0.0837835	0.0830813	-0.0565032	0.730745	0.971825	-0.288951	-0.407493	-0.0873922	-0.0704832	-0.411639	0.110654	-0.0290223	-0.00231454	0.679326	0.11401	-0.148643	-1.49027	-0.059408	0.0040637	-0.0435967	-0.34931	-0.10806	0.210593	-0.247242	-0.52727	-0.342462	1.87559	1.27933	0.0144776	-0.0516297	-0.621414	-0.323663	-0.136921	1.52794	1.8016	0.0661847	-0.0523579
0.31	0.0724988	0.101705	-0.0645155	0.734163	0.975364	-0.289501	-0.459417	-0.116818	-0.0865953	-0.362416	-0.0131934	-0.0290223	-0.00231454	0.692051	0.121852	-0.172857	-1.34736	-0.0356285	0.0040637	-0.0435967	-0.328158	-0.131302	0.221954	-0.252019	-0.531866	-0.350447	1.90378	1.28426	0.0144776	-0.0516297	-0.679545	-0.318674	-0.174921	1.56304	1.78544	0.0661847	-0.0523579
0.32	0.063126	0.114244	-0.073031	0.737223	0.978712	-0.289731	-0.501204	-0.139656	-0.101115	-0.33262	-0.134424	-0.0290223	-0.00231454	0.692066	0.125249	-0.189795	-1.19263	-0.0110569	0.0040637	-0.0435967	-0.310575	-0.149004	0.231298	-0.254635	-0.535796	-0.352888	1.92897	1.29132	0.0144776	-0.0516297	-0.732231	-0.309239	-0.213329	1.59571	1.77477	0.0661847	-0.0523579
0.33	0.0562962	0.120441	-0.0813656	0.739824	0.981727	-0.289638	-0.532581	-0.155326	-0.112187	-0.325796	-0.244944	-0.0290223	-0.00231454	0.680135	0.125132	-0.19769	-1.03061	0.0137982	0.0040637	-0.0435967	-0.297687	-0.160747	0.237994	-0.254614	-0.539041	-0.350144	1.95042	1.30123	0.0144776	-0.0516297	-0.777845	-0.29594	-0.251235	1.62484	1.76879	0.0661847	-0.0523579
